<svg xmlns="http://www.w3.org/2000/svg" viewBox="0 0 314.07 292.68"><defs><style>.cls-1{fill:#75a7c6;}.cls-2{fill:#d7d5d4;}.cls-3{fill:#e73614;}</style></defs><title>Asset 1</title><g id="Layer_2" data-name="Layer 2"><g id="Your_Design" data-name="Your Design"><path class="cls-1" d="M108.85,279.26l5.24,2.07s4.53,11.36,5.17,11.35l9.46-.1c.65,0,5.1-11.47,5.1-11.47l5.29-2.16s11.59,4.78,12,4.34l6.76-6.51c.47-.45-4.73-11.42-4.73-11.42l2.24-5.09s11.88-4.61,11.89-5.22l.1-9.13c0-.63-11.78-4.68-11.78-4.68l-2.13-5.06s5.2-11.28,4.76-11.7l-6.61-6.39c-.46-.45-11.95,4.8-11.95,4.8l-5.24-2.06s-4.52-11.35-5.15-11.35l-9.47.09c-.65,0-5.1,11.47-5.1,11.47l-5.3,2.15s-11.58-4.77-12-4.33l-6.77,6.51c-.46.46,4.73,11.42,4.73,11.42l-2.24,5.11s-11.87,4.59-11.88,5.2l-.11,9.13c0,.64,11.79,4.68,11.79,4.68l2.13,5s-5.2,11.29-4.76,11.72l6.61,6.39C97.37,284.51,108.85,279.26,108.85,279.26Zm5.56-18.67a13,13,0,0,1,.22-18.84,14.22,14.22,0,0,1,19.54-.18,13,13,0,0,1-.24,18.83A14.18,14.18,0,0,1,114.41,260.59Z"/><path class="cls-2" d="M303.55,240.47l1.49-4.58-25.48-6a30.71,30.71,0,0,1-26.27,19.92c-17,1.55-32.09-10.48-33.7-26.87s10.86-30.95,27.86-32.5A31.23,31.23,0,0,1,277,205l23.24-11.68-1.69-3s7-20.14,6.12-20.81l-12.85-10c-.89-.68-20.07,10-20.07,10l-9.6-2.76S252.08,147.89,251,148l-16.6,1.51c-1.15.11-6.78,20.44-6.78,20.44l-8.88,4.45s-21.29-6.51-22-5.69l-10.64,12.16c-.74.83,10.47,18.92,10.47,18.92l-3,9.09s-20,9.6-19.89,10.64l1.54,15.69c.11,1.09,21.61,6.33,21.61,6.33l4.68,8.38s-7,20.12-6.13,20.79l12.84,10c.88.67,20.07-10,20.07-10l9.61,2.77s10.09,18.83,11.22,18.72l16.6-1.52c1.15-.1,6.78-20.43,6.78-20.43l8.91-4.46s21.25,6.52,22,5.72L314,259.39C314.78,258.54,303.55,240.47,303.55,240.47Z"/><path class="cls-3" d="M196.47,105.57a87.12,87.12,0,0,0-5.64-31l-26.5,7.29L115.69,94.73q3.75,13.67,7.49,27.32h.06l1.24,4.35,31.49-8.3c-1.93,14.85-11.18,29-30.57,34.08-27.58,7.28-53.24-7.75-61-35.22C61,105.23,61.72,93.88,65.71,84.14c.06,0,.1-.06.16-.08.16-.51.35-1,.56-1.58.42-.92.87-1.82,1.35-2.71a41.12,41.12,0,0,1,9.28-11.13l-.35-.37A50.38,50.38,0,0,1,98.3,56.66c15.83-4.18,31.19,1.15,41.11,9.54l16.88-15.71,9.1-8.39L160.86,39S159,7.43,157.37,7L133.9,0c-1.63-.48-22,24.46-22,24.46L97.05,25.79S72.3,5.15,70.81,5.89l-22.05,11c-1.53.76,2.35,31.84,2.35,31.84L41.4,59.56S8.26,61.92,7.74,63.43L0,85.91c-.55,1.55,25.31,20.55,25.31,20.55l1.12,14.13S4.34,144.51,5.08,145.9L16.2,166.74C17,168.19,49.68,164,49.68,164L60.94,173s1.9,31.52,3.46,32l23.49,7c1.59.47,22-24.48,22-24.48l14.86-1.3s24.74,20.62,26.23,19.88l22.06-11c1.52-.76-2.35-31.84-2.35-31.84l9.74-10.92s33.1-2.32,33.63-3.81l7.75-22.49Z"/></g></g></svg>